2Varta-SemiBold205.ufo
<glyph name="one" format="1">
  <advance width="552"/>
  <unicode hex="0031"/>
  <outline>
    <contour>
      <point x="50" y="1198" type="line"/>
      <point x="64" y="1075" type="line"/>
      <point x="235" y="1098" type="line"/>
      <point x="235" y="0" type="line"/>
      <point x="383" y="0" type="line"/>
      <point x="383" y="1244" type="line"/>
    </contour>
  </outline>
</glyph>
<glyph name="candraBindu-deva" format="1">
  <advance width="540"/>
  <unicode hex="0901"/>
  <outline>
    <contour>
      <point x="198" y="1801"/>
      <point x="166" y="1770"/>
      <point x="166" y="1698" type="curve" smooth="yes"/>
      <point x="166" y="1626"/>
      <point x="198" y="1595"/>
      <point x="270" y="1595" type="curve" smooth="yes"/>
      <point x="343" y="1595"/>
      <point x="374" y="1626"/>
      <point x="374" y="1698" type="curve" smooth="yes"/>
      <point x="374" y="1770"/>
      <point x="343" y="1801"/>
      <point x="270" y="1801" type="curve" smooth="yes"/>
    </contour>
    <component base="eCandraMatra-deva" xOffset="1"/>
    <contour>
      <point x="275" y="1167" type="move" name="_topcandrabindu"/>
    </contour>
  </outline>
</glyph>
<glyph name="aShort-deva" format="1">
  <advance width="1393"/>
  <unicode hex="0904"/>
  <outline>
    <component base="a-deva"/>
    <component base="eShortMatra-deva" xOffset="843"/>
    <contour>
      <point x="171" y="292" type="move" name="top"/>
    </contour>
    <contour>
      <point x="171" y="7" type="move" name="bottom"/>
    </contour>
  </outline>
</glyph>
<glyph name="llla-deva" format="1">
  <advance width="1478"/>
  <unicode hex="0934"/>
  <outline>
    <component base="lla-deva"/>
    <component base="nukta-deva" xOffset="452" yOffset="22"/>
    <contour>
      <point x="287" y="292" type="move" name="top"/>
    </contour>
    <contour>
      <point x="280" y="7" type="move" name="bottom"/>
    </contour>
  </outline>
</glyph>
<glyph name="nukta-deva" format="1">
  <advance width="555"/>
  <unicode hex="093C"/>
  <outline>
    <contour>
      <point x="203" y="125"/>
      <point x="173" y="96"/>
      <point x="173" y="27" type="curve" smooth="yes"/>
      <point x="173" y="-41"/>
      <point x="203" y="-70"/>
      <point x="272" y="-70" type="curve" smooth="yes"/>
      <point x="341" y="-70"/>
      <point x="370" y="-41"/>
      <point x="370" y="27" type="curve" smooth="yes"/>
      <point x="370" y="96"/>
      <point x="341" y="125"/>
      <point x="272" y="125" type="curve" smooth="yes"/>
    </contour>
    <contour>
      <point x="273" y="27" type="move" name="_nukta"/>
    </contour>
  </outline>
</glyph>
<glyph name="udatta-deva" format="1">
  <advance width="540"/>
  <unicode hex="0951"/>
  <outline>
    <contour>
      <point x="203" y="1869" type="line"/>
      <point x="203" y="1410" type="line"/>
      <point x="338" y="1410" type="line"/>
      <point x="338" y="1869" type="line"/>
    </contour>
    <contour>
      <point x="270" y="1167" type="move" name="_top"/>
    </contour>
  </outline>
</glyph>
<glyph name="grave-deva" format="1">
  <advance width="600"/>
  <unicode hex="0953"/>
  <outline>
    <contour>
      <point x="-352" y="1319" type="line"/>
      <point x="-261" y="1415" type="line"/>
      <point x="-656" y="1807" type="line"/>
      <point x="-772" y="1709" type="line"/>
    </contour>
  </outline>
</glyph>
<glyph name="ueMatra-deva" format="1">
  <advance width="540"/>
  <unicode hex="0956"/>
  <outline>
    <contour>
      <point x="-71" y="-18" type="line"/>
      <point x="-22" y="-134"/>
      <point x="96" y="-249"/>
      <point x="280" y="-249" type="curve" smooth="yes"/>
      <point x="443" y="-249"/>
      <point x="556" y="-165"/>
      <point x="627" y="-11" type="curve"/>
      <point x="506" y="57" type="line"/>
      <point x="464" y="-11"/>
      <point x="394" y="-84"/>
      <point x="268" y="-84" type="curve" smooth="yes"/>
      <point x="140" y="-84"/>
      <point x="74" y="-22"/>
      <point x="29" y="52" type="curve"/>
    </contour>
  </outline>
</glyph>
<glyph name="qa-deva" format="1">
  <advance width="1520"/>
  <unicode hex="0958"/>
  <outline>
    <component base="ka-deva"/>
    <component base="nukta-deva" xOffset="-79" yOffset="45"/>
    <contour>
      <point x="195" y="292" type="move" name="top"/>
    </contour>
    <contour>
      <point x="196" y="7" type="move" name="bottom"/>
    </contour>
    <contour>
      <point x="793" y="1167" type="move" name="topcandrabindu"/>
    </contour>
  </outline>
</glyph>
<glyph name="khha-deva" format="1">
  <advance width="1614"/>
  <unicode hex="0959"/>
  <outline>
    <component base="kha-deva"/>
    <component base="nukta-deva" xOffset="-134" yOffset="45"/>
    <contour>
      <point x="326" y="292" type="move" name="top"/>
    </contour>
    <contour>
      <point x="326" y="7" type="move" name="bottom"/>
    </contour>
    <contour>
      <point x="214" y="292" type="move" name="topcandrabindu"/>
    </contour>
  </outline>
</glyph>
<glyph name="ghha-deva" format="1">
  <advance width="1144"/>
  <unicode hex="095A"/>
  <outline>
    <component base="ga-deva"/>
    <component base="nukta-deva" xOffset="55" yOffset="74"/>
    <contour>
      <point x="215" y="292" type="move" name="top"/>
    </contour>
    <contour>
      <point x="217" y="7" type="move" name="bottom"/>
    </contour>
    <contour>
      <point x="149" y="292" type="move" name="topcandrabindu"/>
    </contour>
  </outline>
</glyph>
<glyph name="za-deva" format="1">
  <advance width="1421"/>
  <unicode hex="095B"/>
  <outline>
    <component base="ja-deva"/>
    <component base="nukta-deva" xOffset="17" yOffset="53"/>
    <contour>
      <point x="287" y="292" type="move" name="top"/>
    </contour>
    <contour>
      <point x="286" y="7" type="move" name="bottom"/>
    </contour>
  </outline>
</glyph>
<glyph name="dddha-deva" format="1">
  <advance width="1039"/>
  <unicode hex="095C"/>
  <outline>
    <component base="dda-deva"/>
    <component base="nukta-deva" xOffset="263" yOffset="-246"/>
    <contour>
      <point x="180" y="292" type="move" name="top"/>
    </contour>
    <contour>
      <point x="152" y="-12" type="move" name="bottom"/>
    </contour>
    <contour>
      <point x="127" y="292" type="move" name="topcandrabindu"/>
    </contour>
  </outline>
</glyph>
<glyph name="rrVocalic-deva" format="1">
  <advance width="1488"/>
  <unicode hex="0960"/>
  <outline>
    <contour>
      <point x="954" y="965" type="line"/>
      <point x="1041" y="817" type="line"/>
      <point x="1052" y="883" type="line"/>
      <point x="739" y="635" type="line"/>
      <point x="808" y="488" type="line"/>
      <point x="1190" y="794" type="line" smooth="yes"/>
      <point x="1246" y="823"/>
      <point x="1259" y="862"/>
      <point x="1259" y="897" type="curve"/>
      <point x="1259" y="976"/>
      <point x="1170" y="1024"/>
      <point x="1050" y="1050" type="curve"/>
    </contour>
    <contour>
      <point x="-18" y="1277" type="line"/>
      <point x="-18" y="1114" type="line"/>
      <point x="1506" y="1114" type="line"/>
      <point x="1506" y="1277" type="line"/>
    </contour>
    <contour>
      <point x="170" y="952"/>
      <point x="85" y="902"/>
      <point x="16" y="847" type="curve"/>
      <point x="109" y="693" type="line"/>
      <point x="189" y="748"/>
      <point x="245" y="775"/>
      <point x="297" y="775" type="curve" smooth="yes"/>
      <point x="390" y="775"/>
      <point x="470" y="701"/>
      <point x="643" y="517" type="curve"/>
      <point x="737" y="600" type="line"/>
      <point x="494" y="914"/>
      <point x="387" y="952"/>
      <point x="274" y="952" type="curve" smooth="yes"/>
    </contour>
    <contour>
      <point x="640" y="1151" type="line"/>
      <point x="640" y="2" type="line"/>
      <point x="829" y="2" type="line"/>
      <point x="829" y="1151" type="line"/>
    </contour>
    <contour>
      <point x="113" y="220" type="line"/>
      <point x="227" y="83" type="line"/>
      <point x="736" y="486" type="line"/>
      <point x="686" y="635" type="line"/>
    </contour>
    <contour>
      <point x="1054" y="803" type="line"/>
      <point x="1234" y="493" type="line"/>
      <point x="1241" y="538" type="line"/>
      <point x="1116" y="515"/>
      <point x="978" y="450"/>
      <point x="979" y="320" type="curve" smooth="yes"/>
      <point x="979" y="239"/>
      <point x="1003" y="122"/>
      <point x="1266" y="79" type="curve"/>
      <point x="1353" y="150" type="line"/>
      <point x="1198" y="175"/>
      <point x="1160" y="235"/>
      <point x="1160" y="294" type="curve" smooth="yes"/>
      <point x="1160" y="373"/>
      <point x="1254" y="402"/>
      <point x="1376" y="413" type="curve"/>
      <point x="1392" y="518" type="line"/>
      <point x="1188" y="866" type="line"/>
    </contour>
    <contour>
      <point x="1142" y="176"/>
      <point x="1057" y="43"/>
      <point x="1057" y="-72" type="curve" smooth="yes"/>
      <point x="1057" y="-211"/>
      <point x="1165" y="-314"/>
      <point x="1334" y="-310" type="curve" smooth="yes"/>
      <point x="1441" y="-308"/>
      <point x="1545" y="-273"/>
      <point x="1623" y="-215" type="curve"/>
      <point x="1560" y="-87" type="line"/>
      <point x="1495" y="-131"/>
      <point x="1414" y="-161"/>
      <point x="1344" y="-163" type="curve" smooth="yes"/>
      <point x="1264" y="-164"/>
      <point x="1230" y="-132"/>
      <point x="1230" y="-71" type="curve" smooth="yes"/>
      <point x="1230" y="-5"/>
      <point x="1286" y="37"/>
      <point x="1434" y="54" type="curve"/>
      <point x="1415" y="191" type="line"/>
    </contour>
    <contour>
      <point x="733" y="1167" type="move" name="top"/>
    </contour>
    <contour>
      <point x="733" y="27" type="move" name="bottom"/>
    </contour>
  </outline>
</glyph>
<glyph name="lVocalicMatra-deva" format="1">
  <advance width="540"/>
  <unicode hex="0962"/>
  <outline>
    <contour>
      <point x="703" y="-663"/>
      <point x="641" y="-692"/>
      <point x="582" y="-692" type="curve" smooth="yes"/>
      <point x="526" y="-692"/>
      <point x="492" y="-661"/>
      <point x="492" y="-614" type="curve" smooth="yes"/>
      <point x="492" y="-552"/>
      <point x="552" y="-508"/>
      <point x="653" y="-468" type="curve"/>
      <point x="549" y="-382" type="line"/>
      <point x="402" y="-435"/>
      <point x="340" y="-522"/>
      <point x="340" y="-612" type="curve" smooth="yes"/>
      <point x="340" y="-740"/>
      <point x="445" y="-823"/>
      <point x="570" y="-823" type="curve" smooth="yes"/>
      <point x="661" y="-823"/>
      <point x="745" y="-790"/>
      <point x="810" y="-742" type="curve"/>
      <point x="758" y="-629" type="line"/>
    </contour>
    <contour>
      <point x="69" y="-411" type="line"/>
      <point x="-9" y="-313"/>
      <point x="-50" y="-248"/>
      <point x="-50" y="-157" type="curve" smooth="yes"/>
      <point x="-50" y="-57"/>
      <point x="8" y="-21"/>
      <point x="74" y="-21" type="curve" smooth="yes"/>
      <point x="161" y="-21"/>
      <point x="224" y="-96"/>
      <point x="287" y="-203" type="curve"/>
      <point x="306" y="-88" type="line"/>
      <point x="245" y="67"/>
      <point x="158" y="131"/>
      <point x="38" y="131" type="curve" smooth="yes"/>
      <point x="-121" y="131"/>
      <point x="-215" y="29"/>
      <point x="-215" y="-148" type="curve" smooth="yes"/>
      <point x="-215" y="-286"/>
      <point x="-150" y="-392"/>
      <point x="-65" y="-497" type="curve"/>
      <point x="-60" y="-497" type="line"/>
    </contour>
    <contour>
      <point x="653" y="-468" type="line"/>
      <point x="717" y="-403"/>
      <point x="780" y="-286"/>
      <point x="780" y="-162" type="curve" smooth="yes"/>
      <point x="780" y="10"/>
      <point x="683" y="133"/>
      <point x="497" y="133" type="curve" smooth="yes"/>
      <point x="316" y="133"/>
      <point x="215" y="2"/>
      <point x="215" y="-170" type="curve" smooth="yes"/>
      <point x="215" y="-207"/>
      <point x="219" y="-241"/>
      <point x="230" y="-275" type="curve"/>
      <point x="375" y="-259" type="line"/>
      <point x="371" y="-232"/>
      <point x="368" y="-207"/>
      <point x="368" y="-185" type="curve" smooth="yes"/>
      <point x="368" y="-87"/>
      <point x="415" y="-20"/>
      <point x="503" y="-20" type="curve" smooth="yes"/>
      <point x="585" y="-20"/>
      <point x="622" y="-87"/>
      <point x="622" y="-174" type="curve" smooth="yes"/>
      <point x="622" y="-250"/>
      <point x="580" y="-337"/>
      <point x="529" y="-396" type="curve"/>
      <point x="530" y="-402" type="line"/>
    </contour>
  </outline>
</glyph>
<glyph name="two-deva" format="1">
  <advance width="819"/>
  <unicode hex="0968"/>
  <outline>
    <contour>
      <point x="317" y="1301"/>
      <point x="186" y="1293"/>
      <point x="80" y="1247" type="curve"/>
      <point x="122" y="1097" type="line"/>
      <point x="190" y="1118"/>
      <point x="294" y="1138"/>
      <point x="352" y="1138" type="curve" smooth="yes"/>
      <point x="485" y="1138"/>
      <point x="576" y="1089"/>
      <point x="577" y="948" type="curve" smooth="yes"/>
      <point x="579" y="777"/>
      <point x="433" y="650"/>
      <point x="153" y="593" type="curve"/>
      <point x="294" y="464" type="line"/>
      <point x="578" y="538"/>
      <point x="763" y="722"/>
      <point x="761" y="951" type="curve" smooth="yes"/>
      <point x="758" y="1141"/>
      <point x="645" y="1301"/>
      <point x="369" y="1301" type="curve" smooth="yes"/>
    </contour>
    <contour>
      <point x="210" y="527" type="line"/>
      <point x="644" y="-25" type="line"/>
      <point x="791" y="94" type="line"/>
      <point x="328" y="586" type="line"/>
    </contour>
    <contour>
      <point x="119" y="737" type="line"/>
      <point x="71" y="658"/>
      <point x="61" y="606"/>
      <point x="61" y="572" type="curve" smooth="yes"/>
      <point x="61" y="482"/>
      <point x="131" y="437"/>
      <point x="208" y="437" type="curve" smooth="yes"/>
      <point x="217" y="437"/>
      <point x="279" y="438"/>
      <point x="403" y="466" type="curve"/>
      <point x="396" y="554" type="line"/>
      <point x="228" y="737" type="line"/>
    </contour>
  </outline>
</glyph>
<glyph name="aw-deva" format="1">
  <advance width="1960"/>
  <unicode hex="0975"/>
  <outline>
    <contour>
      <point x="968" y="1787"/>
      <point x="962" y="1741"/>
      <point x="962" y="1717" type="curve" smooth="yes"/>
      <point x="962" y="1635"/>
      <point x="1016" y="1571"/>
      <point x="1201" y="1542" type="curve" smooth="yes"/>
      <point x="1451" y="1503" type="line" smooth="yes"/>
      <point x="1554" y="1487"/>
      <point x="1686" y="1470"/>
      <point x="1686" y="1340" type="curve" smooth="yes"/>
      <point x="1686" y="1299"/>
      <point x="1673" y="1266"/>
      <point x="1646" y="1212" type="curve"/>
      <point x="1721" y="1166" type="line"/>
      <point x="1787" y="1256"/>
      <point x="1811" y="1333"/>
      <point x="1811" y="1407" type="curve" smooth="yes"/>
      <point x="1811" y="1556"/>
      <point x="1720" y="1614"/>
      <point x="1527" y="1642" type="curve" smooth="yes"/>
      <point x="1258" y="1681" type="line" smooth="yes"/>
      <point x="1112" y="1702"/>
      <point x="1078" y="1734"/>
      <point x="1078" y="1783" type="curve" smooth="yes"/>
      <point x="1078" y="1794"/>
      <point x="1079" y="1805"/>
      <point x="1082" y="1818" type="curve"/>
      <point x="988" y="1834" type="line"/>
    </contour>
    <contour>
      <point x="868" y="1701"/>
      <point x="860" y="1665"/>
      <point x="860" y="1632" type="curve" smooth="yes"/>
      <point x="860" y="1524"/>
      <point x="939" y="1451"/>
      <point x="1115" y="1422" type="curve" smooth="yes"/>
      <point x="1441" y="1368" type="line" smooth="yes"/>
      <point x="1589" y="1343"/>
      <point x="1620" y="1321"/>
      <point x="1620" y="1253" type="curve" smooth="yes"/>
      <point x="1620" y="1231"/>
      <point x="1617" y="1202"/>
      <point x="1614" y="1168" type="curve"/>
      <point x="1678" y="1146" type="line"/>
      <point x="1694" y="1197"/>
      <point x="1707" y="1250"/>
      <point x="1707" y="1293" type="curve" smooth="yes"/>
      <point x="1707" y="1414"/>
      <point x="1650" y="1482"/>
      <point x="1452" y="1515" type="curve" smooth="yes"/>
      <point x="1159" y="1562" type="line" smooth="yes"/>
      <point x="1006" y="1588"/>
      <point x="973" y="1625"/>
      <point x="971" y="1672" type="curve" smooth="yes"/>
      <point x="970" y="1692"/>
      <point x="973" y="1706"/>
      <point x="976" y="1725" type="curve"/>
      <point x="884" y="1739" type="line"/>
    </contour>
    <component base="aa-deva"/>
  </outline>
</glyph>
<glyph name="d_dh_r_ya-deva" format="1">
  <advance width="2396"/>
  <outline>
    <contour>
      <point x="892" y="1145" type="line"/>
      <point x="892" y="846" type="line"/>
      <point x="1012" y="874" type="line"/>
      <point x="931" y="898"/>
      <point x="865" y="906"/>
      <point x="812" y="906" type="curve" smooth="yes"/>
      <point x="469" y="906"/>
      <point x="335" y="746"/>
      <point x="335" y="503" type="curve" smooth="yes"/>
      <point x="335" y="251"/>
      <point x="490" y="68"/>
      <point x="818" y="68" type="curve" smooth="yes"/>
      <point x="926" y="68"/>
      <point x="1014" y="89"/>
      <point x="1096" y="144" type="curve" smooth="yes"/>
      <point x="1157" y="184"/>
      <point x="1194" y="262"/>
      <point x="1194" y="324" type="curve" smooth="yes"/>
      <point x="1194" y="424"/>
      <point x="1099" y="497"/>
      <point x="987" y="527" type="curve"/>
      <point x="881" y="444" type="line"/>
      <point x="982" y="233" type="line"/>
      <point x="1062" y="315" type="line"/>
      <point x="965" y="251"/>
      <point x="909" y="227"/>
      <point x="803" y="227" type="curve" smooth="yes"/>
      <point x="629" y="227"/>
      <point x="532" y="292"/>
      <point x="532" y="480" type="curve" smooth="yes"/>
      <point x="532" y="688"/>
      <point x="643" y="738"/>
      <point x="858" y="738" type="curve" smooth="yes"/>
      <point x="963" y="738"/>
      <point x="1029" y="740"/>
      <point x="1081" y="740" type="curve"/>
      <point x="1081" y="1145" type="line"/>
    </contour>
    <contour>
      <point x="198" y="473"/>
      <point x="46" y="350"/>
      <point x="45" y="186" type="curve" smooth="yes"/>
      <point x="44" y="27"/>
      <point x="147" y="-66"/>
      <point x="312" y="-81" type="curve" smooth="yes"/>
      <point x="356" y="-86"/>
      <point x="404" y="-82"/>
      <point x="457" y="-74" type="curve"/>
      <point x="511" y="28" type="line"/>
      <point x="443" y="30"/>
      <point x="379" y="35"/>
      <point x="333" y="48" type="curve" smooth="yes"/>
      <point x="255" y="69"/>
      <point x="218" y="116"/>
      <point x="218" y="176" type="curve" smooth="yes"/>
      <point x="217" y="256"/>
      <point x="278" y="320"/>
      <point x="397" y="364" type="curve"/>
      <point x="356" y="509" type="line"/>
    </contour>
    <contour>
      <point x="975" y="-72"/>
      <point x="858" y="-252"/>
      <point x="681" y="-252" type="curve" smooth="yes"/>
      <point x="609" y="-252"/>
      <point x="551" y="-210"/>
      <point x="551" y="-133" type="curve" smooth="yes"/>
      <point x="551" y="-24"/>
      <point x="659" y="43"/>
      <point x="738" y="85" type="curve"/>
      <point x="687" y="210" type="line"/>
      <point x="587" y="162"/>
      <point x="373" y="65"/>
      <point x="373" y="-133" type="curve" smooth="yes"/>
      <point x="373" y="-307"/>
      <point x="510" y="-407"/>
      <point x="688" y="-407" type="curve" smooth="yes"/>
      <point x="1046" y="-407"/>
      <point x="1135" y="-31"/>
      <point x="1117" y="207" type="curve"/>
      <point x="997" y="257" type="line"/>
    </contour>
    <contour>
      <point x="865" y="-475" type="line"/>
      <point x="961" y="-598" type="line"/>
      <point x="1390" y="-258" type="line"/>
      <point x="1293" y="-167" type="line"/>
    </contour>
    <contour>
      <point x="1022" y="215" type="line"/>
      <point x="1365" y="-410" type="line"/>
      <point x="1499" y="-321" type="line"/>
      <point x="1120" y="266" type="line"/>
    </contour>
    <contour>
      <point x="1004" y="899" type="line"/>
      <point x="988" y="739" type="line"/>
      <point x="1426" y="739" type="line" smooth="yes"/>
      <point x="1493" y="739"/>
      <point x="1536" y="724"/>
      <point x="1536" y="687" type="curve" smooth="yes"/>
      <point x="1536" y="633"/>
      <point x="1463" y="585"/>
      <point x="1277" y="538" type="curve"/>
      <point x="1330" y="258"/>
      <point x="1496" y="101"/>
      <point x="1737" y="101" type="curve" smooth="yes"/>
      <point x="1866" y="101"/>
      <point x="1963" y="147"/>
      <point x="2047" y="234" type="curve"/>
      <point x="2057" y="466" type="line"/>
      <point x="1974" y="329"/>
      <point x="1841" y="274"/>
      <point x="1723" y="274" type="curve" smooth="yes"/>
      <point x="1593" y="274"/>
      <point x="1493" y="341"/>
      <point x="1456" y="493" type="curve"/>
      <point x="1439" y="422" type="line"/>
      <point x="1545" y="455"/>
      <point x="1709" y="518"/>
      <point x="1709" y="696" type="curve" smooth="yes"/>
      <point x="1709" y="846"/>
      <point x="1597" y="901"/>
      <point x="1400" y="900" type="curve" smooth="yes"/>
    </contour>
    <contour>
      <point x="-18" y="1277" type="line"/>
      <point x="-18" y="1114" type="line"/>
      <point x="2413" y="1114" type="line"/>
      <point x="2413" y="1277" type="line"/>
    </contour>
    <contour>
      <point x="2022" y="1141" type="line"/>
      <point x="2022" y="0" type="line"/>
      <point x="2211" y="0" type="line"/>
      <point x="2211" y="1141" type="line"/>
    </contour>
    <contour>
      <point x="2116" y="1167" type="move" name="top"/>
    </contour>
    <contour>
      <point x="2116" y="27" type="move" name="bottom"/>
    </contour>
  </outline>
</glyph>
<glyph name="d_dha-deva" format="1">
  <advance width="1297"/>
  <outline>
    <contour>
      <point x="-18" y="1250" type="line"/>
      <point x="-18" y="1087" type="line"/>
      <point x="1329" y="1087" type="line"/>
      <point x="1329" y="1250" type="line"/>
    </contour>
    <contour>
      <point x="906" y="1118" type="line"/>
      <point x="906" y="819" type="line"/>
      <point x="1026" y="847" type="line"/>
      <point x="945" y="871"/>
      <point x="879" y="879"/>
      <point x="826" y="879" type="curve" smooth="yes"/>
      <point x="483" y="879"/>
      <point x="349" y="719"/>
      <point x="349" y="476" type="curve" smooth="yes"/>
      <point x="349" y="224"/>
      <point x="504" y="41"/>
      <point x="832" y="41" type="curve" smooth="yes"/>
      <point x="940" y="41"/>
      <point x="1028" y="62"/>
      <point x="1110" y="117" type="curve" smooth="yes"/>
      <point x="1171" y="157"/>
      <point x="1208" y="235"/>
      <point x="1208" y="296" type="curve" smooth="yes"/>
      <point x="1208" y="397"/>
      <point x="1113" y="470"/>
      <point x="1001" y="500" type="curve"/>
      <point x="895" y="417" type="line"/>
      <point x="996" y="206" type="line"/>
      <point x="1076" y="288" type="line"/>
      <point x="979" y="224"/>
      <point x="923" y="199"/>
      <point x="817" y="199" type="curve" smooth="yes"/>
      <point x="643" y="199"/>
      <point x="546" y="265"/>
      <point x="546" y="453" type="curve" smooth="yes"/>
      <point x="546" y="660"/>
      <point x="657" y="710"/>
      <point x="872" y="710" type="curve" smooth="yes"/>
      <point x="977" y="710"/>
      <point x="1042" y="706"/>
      <point x="1095" y="702" type="curve"/>
      <point x="1095" y="1118" type="line"/>
    </contour>
    <contour>
      <point x="146" y="386"/>
      <point x="60" y="273"/>
      <point x="58" y="159" type="curve" smooth="yes"/>
      <point x="56" y="-1"/>
      <point x="160" y="-93"/>
      <point x="326" y="-108" type="curve" smooth="yes"/>
      <point x="369" y="-113"/>
      <point x="418" y="-109"/>
      <point x="470" y="-102" type="curve"/>
      <point x="525" y="1" type="line"/>
      <point x="456" y="2"/>
      <point x="393" y="8"/>
      <point x="346" y="21" type="curve" smooth="yes"/>
      <point x="268" y="42"/>
      <point x="222" y="100"/>
      <point x="221" y="171" type="curve" smooth="yes"/>
      <point x="221" y="242"/>
      <point x="252" y="291"/>
      <point x="329" y="331" type="curve"/>
      <point x="279" y="425" type="line"/>
    </contour>
    <contour>
      <point x="989" y="-100"/>
      <point x="872" y="-279"/>
      <point x="695" y="-279" type="curve" smooth="yes"/>
      <point x="623" y="-279"/>
      <point x="565" y="-237"/>
      <point x="565" y="-160" type="curve" smooth="yes"/>
      <point x="565" y="-51"/>
      <point x="673" y="15"/>
      <point x="752" y="58" type="curve"/>
      <point x="701" y="183" type="line"/>
      <point x="601" y="134"/>
      <point x="387" y="38"/>
      <point x="387" y="-160" type="curve" smooth="yes"/>
      <point x="387" y="-334"/>
      <point x="524" y="-435"/>
      <point x="702" y="-435" type="curve" smooth="yes"/>
      <point x="1060" y="-435"/>
      <point x="1149" y="-58"/>
      <point x="1131" y="180" type="curve"/>
      <point x="1011" y="230" type="line"/>
    </contour>
    <contour>
      <point x="1036" y="188" type="line"/>
      <point x="1223" y="-182" type="line"/>
      <point x="1357" y="-93" type="line"/>
      <point x="1134" y="239" type="line"/>
    </contour>
    <contour>
      <point x="998" y="1140" type="move" name="top"/>
    </contour>
    <contour>
      <point x="773" y="-369" type="move" name="bottom"/>
    </contour>
  </outline>
</glyph>
<glyph name="d_va-deva" format="1">
  <advance width="1010"/>
  <outline>
    <contour>
      <point x="-18" y="1277" type="line"/>
      <point x="-18" y="1114" type="line"/>
      <point x="1027" y="1114" type="line"/>
      <point x="1027" y="1277" type="line"/>
    </contour>
    <contour>
      <point x="622" y="1145" type="line"/>
      <point x="622" y="846" type="line"/>
      <point x="742" y="874" type="line"/>
      <point x="661" y="898"/>
      <point x="595" y="906"/>
      <point x="542" y="906" type="curve" smooth="yes"/>
      <point x="199" y="906"/>
      <point x="65" y="746"/>
      <point x="65" y="503" type="curve" smooth="yes"/>
      <point x="65" y="251"/>
      <point x="220" y="68"/>
      <point x="548" y="68" type="curve" smooth="yes"/>
      <point x="656" y="68"/>
      <point x="744" y="89"/>
      <point x="826" y="144" type="curve" smooth="yes"/>
      <point x="887" y="184"/>
      <point x="924" y="262"/>
      <point x="924" y="324" type="curve" smooth="yes"/>
      <point x="924" y="424"/>
      <point x="829" y="497"/>
      <point x="717" y="527" type="curve"/>
      <point x="611" y="444" type="line"/>
      <point x="712" y="233" type="line"/>
      <point x="792" y="315" type="line"/>
      <point x="695" y="251"/>
      <point x="639" y="227"/>
      <point x="533" y="227" type="curve" smooth="yes"/>
      <point x="359" y="227"/>
      <point x="262" y="292"/>
      <point x="262" y="480" type="curve" smooth="yes"/>
      <point x="262" y="688"/>
      <point x="373" y="738"/>
      <point x="588" y="738" type="curve" smooth="yes"/>
      <point x="693" y="738"/>
      <point x="758" y="733"/>
      <point x="811" y="730" type="curve"/>
      <point x="811" y="1145" type="line"/>
    </contour>
    <contour>
      <point x="702" y="-71"/>
      <point x="587" y="-248"/>
      <point x="418" y="-248" type="curve" smooth="yes"/>
      <point x="342" y="-248"/>
      <point x="284" y="-207"/>
      <point x="284" y="-131" type="curve" smooth="yes"/>
      <point x="284" y="-23"/>
      <point x="391" y="43"/>
      <point x="468" y="84" type="curve"/>
      <point x="417" y="210" type="line"/>
      <point x="317" y="162"/>
      <point x="103" y="65"/>
      <point x="103" y="-133" type="curve" smooth="yes"/>
      <point x="103" y="-307"/>
      <point x="240" y="-407"/>
      <point x="423" y="-407" type="curve" smooth="yes"/>
      <point x="775" y="-407"/>
      <point x="865" y="-29"/>
      <point x="847" y="207" type="curve"/>
      <point x="724" y="254" type="line"/>
    </contour>
    <contour>
      <point x="751" y="215" type="line"/>
      <point x="938" y="-155" type="line"/>
      <point x="1072" y="-66" type="line"/>
      <point x="849" y="266" type="line"/>
    </contour>
    <contour>
      <point x="720" y="1167" type="move" name="top"/>
    </contour>
    <contour>
      <point x="884" y="-152" type="move" name="bottom"/>
    </contour>
  </outline>
</glyph>
<glyph name="da_ra-deva" format="1">
  <advance width="1031"/>
  <outline>
    <contour>
      <point x="288" y="-76" type="line"/>
      <point x="398" y="-207" type="line" smooth="yes"/>
      <point x="886" y="199" type="line"/>
      <point x="836" y="284" type="line"/>
    </contour>
    <component base="da-deva"/>
    <contour>
      <point x="725" y="1167" type="move" name="top"/>
    </contour>
    <contour>
      <point x="825" y="-57" type="move" name="bottom"/>
    </contour>
  </outline>
</glyph>
<glyph name="dd-deva" format="1">
  <advance width="1039"/>
  <outline>
    <component base="dda-deva"/>
    <component base="halant-deva" xOffset="415" yOffset="-52"/>
    <contour>
      <point x="120" y="292" type="move" name="top"/>
    </contour>
    <contour>
      <point x="120" y="7" type="move" name="bottom"/>
    </contour>
  </outline>
</glyph>
<glyph name="ddh-deva" format="1">
  <advance width="1079"/>
  <outline>
    <component base="ddha-deva"/>
    <component base="halant-deva" xOffset="440" yOffset="24"/>
    <contour>
      <point x="133" y="292" type="move" name="top"/>
    </contour>
    <contour>
      <point x="133" y="7" type="move" name="bottom"/>
    </contour>
  </outline>
</glyph>
<glyph name="ddh_ddha-deva" format="1">
  <advance width="1120"/>
  <outline>
    <contour>
      <point x="675" y="1210" type="line"/>
      <point x="675" y="918" type="line"/>
      <point x="760" y="949" type="line"/>
      <point x="693" y="973"/>
      <point x="600" y="982"/>
      <point x="541" y="982" type="curve" smooth="yes"/>
      <point x="321" y="981"/>
      <point x="126" y="878"/>
      <point x="126" y="565" type="curve" smooth="yes"/>
      <point x="126" y="283"/>
      <point x="318" y="142"/>
      <point x="597" y="140" type="curve" smooth="yes"/>
      <point x="768" y="139"/>
      <point x="1030" y="197"/>
      <point x="1030" y="449" type="curve" smooth="yes"/>
      <point x="1030" y="602"/>
      <point x="921" y="675"/>
      <point x="779" y="675" type="curve" smooth="yes"/>
      <point x="609" y="675"/>
      <point x="543" y="572"/>
      <point x="543" y="482" type="curve" smooth="yes"/>
      <point x="543" y="390"/>
      <point x="581" y="328"/>
      <point x="661" y="261" type="curve"/>
      <point x="784" y="287" type="line"/>
      <point x="716" y="348"/>
      <point x="696" y="398"/>
      <point x="696" y="450" type="curve" smooth="yes"/>
      <point x="696" y="497"/>
      <point x="726" y="537"/>
      <point x="782" y="537" type="curve" smooth="yes"/>
      <point x="835" y="537"/>
      <point x="881" y="524"/>
      <point x="881" y="457" type="curve" smooth="yes"/>
      <point x="881" y="343"/>
      <point x="789" y="288"/>
      <point x="629" y="286" type="curve" smooth="yes"/>
      <point x="385" y="281"/>
      <point x="307" y="351"/>
      <point x="307" y="552" type="curve" smooth="yes"/>
      <point x="307" y="809"/>
      <point x="493" y="821"/>
      <point x="619" y="821" type="curve" smooth="yes"/>
      <point x="684" y="821"/>
      <point x="794" y="817"/>
      <point x="861" y="812" type="curve"/>
      <point x="861" y="1210" type="line"/>
    </contour>
    <contour>
      <point x="261" y="240"/>
      <point x="135" y="105"/>
      <point x="135" y="-136" type="curve" smooth="yes"/>
      <point x="135" y="-410"/>
      <point x="318" y="-555"/>
      <point x="598" y="-555" type="curve" smooth="yes"/>
      <point x="768" y="-555"/>
      <point x="1030" y="-496"/>
      <point x="1030" y="-245" type="curve" smooth="yes"/>
      <point x="1030" y="-91"/>
      <point x="921" y="-19"/>
      <point x="779" y="-19" type="curve" smooth="yes"/>
      <point x="609" y="-19"/>
      <point x="543" y="-122"/>
      <point x="543" y="-212" type="curve" smooth="yes"/>
      <point x="543" y="-303"/>
      <point x="581" y="-365"/>
      <point x="661" y="-432" type="curve"/>
      <point x="784" y="-407" type="line"/>
      <point x="716" y="-346"/>
      <point x="697" y="-296"/>
      <point x="697" y="-244" type="curve" smooth="yes"/>
      <point x="697" y="-196"/>
      <point x="726" y="-156"/>
      <point x="783" y="-156" type="curve" smooth="yes"/>
      <point x="835" y="-156"/>
      <point x="881" y="-169"/>
      <point x="881" y="-237" type="curve" smooth="yes"/>
      <point x="881" y="-350"/>
      <point x="789" y="-404"/>
      <point x="629" y="-407" type="curve" smooth="yes"/>
      <point x="401" y="-411"/>
      <point x="316" y="-338"/>
      <point x="316" y="-142" type="curve" smooth="yes"/>
      <point x="316" y="29"/>
      <point x="403" y="135"/>
      <point x="635" y="141" type="curve"/>
      <point x="610" y="240" type="line"/>
    </contour>
    <contour>
      <point x="-18" y="1277" type="line"/>
      <point x="-18" y="1114" type="line"/>
      <point x="1137" y="1114" type="line"/>
      <point x="1137" y="1277" type="line"/>
    </contour>
    <contour>
      <point x="769" y="1167" type="move" name="top"/>
    </contour>
    <contour>
      <point x="662" y="-510" type="move" name="bottom"/>
    </contour>
    <contour>
      <point x="536" y="1167" type="move" name="topcandrabindu"/>
    </contour>
  </outline>
</glyph>
<glyph name="eight-deva.np" format="1">
  <advance width="975"/>
  <outline>
    <contour>
      <point x="146" y="1183"/>
      <point x="75" y="970"/>
      <point x="75" y="794" type="curve" smooth="yes"/>
      <point x="75" y="553"/>
      <point x="224" y="393"/>
      <point x="492" y="393" type="curve" smooth="yes"/>
      <point x="699" y="393"/>
      <point x="898" y="570"/>
      <point x="898" y="722" type="curve" smooth="yes"/>
      <point x="900" y="814"/>
      <point x="788" y="893"/>
      <point x="718" y="915" type="curve"/>
      <point x="619" y="854" type="line"/>
      <point x="667" y="569" type="line"/>
      <point x="792" y="744" type="line"/>
      <point x="703" y="626"/>
      <point x="621" y="565"/>
      <point x="498" y="565" type="curve" smooth="yes"/>
      <point x="362" y="565"/>
      <point x="257" y="616"/>
      <point x="257" y="792" type="curve" smooth="yes"/>
      <point x="257" y="955"/>
      <point x="346" y="1113"/>
      <point x="404" y="1211" type="curve"/>
      <point x="260" y="1303" type="line"/>
    </contour>
    <contour>
      <point x="358" y="235" type="line"/>
      <point x="310" y="155"/>
      <point x="300" y="103"/>
      <point x="300" y="69" type="curve" smooth="yes"/>
      <point x="300" y="-21"/>
      <point x="370" y="-66"/>
      <point x="447" y="-66" type="curve" smooth="yes"/>
      <point x="456" y="-66"/>
      <point x="518" y="-65"/>
      <point x="642" y="-34" type="curve"/>
      <point x="635" y="52" type="line"/>
      <point x="467" y="235" type="line"/>
    </contour>
    <contour>
      <point x="515" y="-3" type="line"/>
      <point x="842" y="-395" type="line"/>
      <point x="984" y="-276" type="line"/>
      <point x="646" y="58" type="line"/>
    </contour>
    <contour>
      <point x="649" y="576" type="line"/>
      <point x="689" y="375"/>
      <point x="668" y="199"/>
      <point x="508" y="69" type="curve"/>
      <point x="651" y="-7" type="line"/>
      <point x="844" y="166"/>
      <point x="852" y="341"/>
      <point x="834" y="588" type="curve"/>
    </contour>
  </outline>
</glyph>
<glyph name="g_la-deva.loclMAR" format="1">
  <advance width="1187"/>
  <outline>
    <contour>
      <point x="792" y="1229" type="line"/>
      <point x="792" y="28" type="line"/>
      <point x="981" y="28" type="line"/>
      <point x="981" y="1229" type="line"/>
    </contour>
    <contour>
      <point x="295" y="718" type="line"/>
      <point x="110" y="696" type="line"/>
      <point x="110" y="566" type="line"/>
      <point x="291" y="365" type="line"/>
      <point x="418" y="366"/>
      <point x="445" y="427"/>
      <point x="445" y="503" type="curve" smooth="yes"/>
      <point x="445" y="718" type="line"/>
    </contour>
    <contour>
      <point x="256" y="1180" type="line"/>
      <point x="256" y="479" type="line"/>
      <point x="445" y="645" type="line"/>
      <point x="445" y="1180" type="line"/>
    </contour>
    <contour>
      <point x="-18" y="1277" type="line"/>
      <point x="-18" y="1114" type="line"/>
      <point x="1204" y="1114" type="line"/>
      <point x="1204" y="1277" type="line"/>
    </contour>
    <component base="add" xOffset="56"/>
    <contour>
      <point x="887" y="1167" type="move" name="top"/>
    </contour>
    <contour>
      <point x="844" y="-482" type="move" name="bottom"/>
    </contour>
    <contour>
      <point x="623" y="1167" type="move" name="topcandrabindu"/>
    </contour>
  </outline>
</glyph>
<glyph name="iMatra_reph_anusvara-deva.02" format="1">
  <advance width="559"/>
  <outline>
    <component base="reph_anusvara-deva.imatra" xOffset="1316" yOffset="192"/>
    <component base="iMatra-deva.02"/>
    <contour>
      <point x="406" y="450" type="move" name="top"/>
    </contour>
  </outline>
</glyph>
<glyph name="k_va-deva" format="1">
  <advance width="2237"/>
  <outline>
    <component base="k-deva"/>
    <component base="va-deva" xOffset="1146"/>
    <contour>
      <point x="1961" y="1167" type="move" name="top"/>
    </contour>
    <contour>
      <point x="1961" y="27" type="move" name="bottom"/>
    </contour>
    <contour>
      <point x="1963" y="1167" type="move" name="topcandrabindu"/>
    </contour>
  </outline>
</glyph>
<glyph name="ka_ra-deva.alt" format="1">
  <advance width="1504"/>
  <outline>
    <contour>
      <point x="1017" y="881"/>
      <point x="913" y="825"/>
      <point x="810" y="702" type="curve"/>
      <point x="810" y="430" type="line"/>
      <point x="963" y="643"/>
      <point x="1067" y="713"/>
      <point x="1142" y="713" type="curve" smooth="yes"/>
      <point x="1226" y="713"/>
      <point x="1275" y="668"/>
      <point x="1272" y="567" type="curve" smooth="yes"/>
      <point x="1271" y="464"/>
      <point x="1222" y="360"/>
      <point x="1136" y="241" type="curve"/>
      <point x="1275" y="136" type="line"/>
      <point x="1385" y="258"/>
      <point x="1443" y="403"/>
      <point x="1444" y="549" type="curve" smooth="yes"/>
      <point x="1447" y="752"/>
      <point x="1337" y="881"/>
      <point x="1152" y="881" type="curve" smooth="yes"/>
    </contour>
    <contour>
      <point x="147" y="220" type="line"/>
      <point x="261" y="83" type="line"/>
      <point x="770" y="486" type="line"/>
      <point x="720" y="635" type="line"/>
    </contour>
    <contour>
      <point x="204" y="952"/>
      <point x="119" y="902"/>
      <point x="50" y="847" type="curve"/>
      <point x="143" y="693" type="line"/>
      <point x="223" y="748"/>
      <point x="279" y="775"/>
      <point x="331" y="775" type="curve" smooth="yes"/>
      <point x="424" y="775"/>
      <point x="504" y="701"/>
      <point x="677" y="517" type="curve"/>
      <point x="771" y="600" type="line"/>
      <point x="528" y="914"/>
      <point x="421" y="952"/>
      <point x="308" y="952" type="curve" smooth="yes"/>
    </contour>
    <contour>
      <point x="675" y="1151" type="line"/>
      <point x="675" y="2" type="line"/>
      <point x="864" y="2" type="line"/>
      <point x="864" y="1151" type="line"/>
    </contour>
    <contour>
      <point x="-18" y="1277" type="line"/>
      <point x="-18" y="1114" type="line"/>
      <point x="1521" y="1114" type="line"/>
      <point x="1521" y="1277" type="line"/>
    </contour>
    <contour>
      <point x="770" y="1167" type="move" name="top"/>
    </contour>
    <contour>
      <point x="770" y="27" type="move" name="bottom"/>
    </contour>
    <contour>
      <point x="771" y="1167" type="move" name="topcandrabindu"/>
    </contour>
  </outline>
</glyph>
<glyph name="khh-deva" format="1">
  <advance width="1142"/>
  <outline>
    <component base="kh-deva"/>
    <component base="nukta-deva" xOffset="-88" yOffset="-7"/>
    <contour>
      <point x="134" y="292" type="move" name="top"/>
    </contour>
    <contour>
      <point x="134" y="7" type="move" name="bottom"/>
    </contour>
  </outline>
</glyph>
<glyph name="ng_k_ssa-deva" format="1">
  <advance width="1214"/>
  <outline>
    <contour>
      <point x="430" y="976" type="line" smooth="yes"/>
      <point x="247" y="976"/>
      <point x="166" y="917"/>
      <point x="166" y="787" type="curve" smooth="yes"/>
      <point x="166" y="677"/>
      <point x="225" y="559"/>
      <point x="292" y="504" type="curve"/>
      <point x="324" y="479"/>
      <point x="346" y="477"/>
      <point x="365" y="479" type="curve" smooth="yes"/>
      <point x="424" y="485"/>
      <point x="565" y="503"/>
      <point x="677" y="503" type="curve" smooth="yes"/>
      <point x="793" y="503"/>
      <point x="820" y="477"/>
      <point x="820" y="412" type="curve" smooth="yes"/>
      <point x="820" y="330"/>
      <point x="752" y="291"/>
      <point x="590" y="291" type="curve" smooth="yes"/>
      <point x="387" y="291"/>
      <point x="294" y="345"/>
      <point x="180" y="460" type="curve"/>
      <point x="86" y="368" type="line"/>
      <point x="221" y="206"/>
      <point x="401" y="138"/>
      <point x="580" y="136" type="curve" smooth="yes"/>
      <point x="808" y="136"/>
      <point x="994" y="207"/>
      <point x="994" y="432" type="curve" smooth="yes"/>
      <point x="994" y="641"/>
      <point x="835" y="665"/>
      <point x="654" y="664" type="curve" smooth="yes"/>
      <point x="545" y="663"/>
      <point x="417" y="648"/>
      <point x="343" y="635" type="curve"/>
      <point x="363" y="621" type="line"/>
      <point x="352" y="628"/>
      <point x="330" y="683"/>
      <point x="330" y="733" type="curve" smooth="yes"/>
      <point x="330" y="798"/>
      <point x="358" y="816"/>
      <point x="478" y="816" type="curve" smooth="yes"/>
      <point x="812" y="816" type="line"/>
      <point x="791" y="976" type="line"/>
    </contour>
    <contour>
      <point x="421" y="-551" type="line"/>
      <point x="563" y="-783" type="line"/>
      <point x="671" y="-715" type="line"/>
      <point x="532" y="-530" type="line"/>
    </contour>
    <contour>
      <point x="336" y="-411" type="line"/>
      <point x="425" y="-559" type="line"/>
      <point x="487" y="-623" type="line"/>
      <point x="551" y="-588"/>
      <point x="599" y="-556"/>
      <point x="601" y="-509" type="curve" smooth="yes"/>
      <point x="602" y="-463"/>
      <point x="537" y="-378"/>
      <point x="431" y="-348" type="curve"/>
    </contour>
    <contour>
      <point x="208" y="279"/>
      <point x="111" y="209"/>
      <point x="111" y="75" type="curve" smooth="yes"/>
      <point x="111" y="-0"/>
      <point x="152" y="-82"/>
      <point x="265" y="-161" type="curve"/>
      <point x="388" y="-84" type="line"/>
      <point x="287" y="-21"/>
      <point x="265" y="31"/>
      <point x="265" y="71" type="curve" smooth="yes"/>
      <point x="265" y="131"/>
      <point x="305" y="163"/>
      <point x="369" y="163" type="curve" smooth="yes"/>
      <point x="424" y="163"/>
      <point x="458" y="135"/>
      <point x="458" y="66" type="curve" smooth="yes"/>
      <point x="458" y="-5"/>
      <point x="420" y="-31"/>
      <point x="321" y="-88" type="curve" smooth="yes"/>
      <point x="137" y="-195"/>
      <point x="57" y="-248"/>
      <point x="57" y="-392" type="curve" smooth="yes"/>
      <point x="57" y="-582"/>
      <point x="220" y="-653"/>
      <point x="357" y="-653" type="curve" smooth="yes"/>
      <point x="428" y="-653"/>
      <point x="511" y="-633"/>
      <point x="550" y="-589" type="curve"/>
      <point x="502" y="-460" type="line"/>
      <point x="471" y="-500"/>
      <point x="405" y="-520"/>
      <point x="357" y="-520" type="curve" smooth="yes"/>
      <point x="294" y="-520"/>
      <point x="206" y="-487"/>
      <point x="206" y="-399" type="curve" smooth="yes"/>
      <point x="206" y="-309"/>
      <point x="263" y="-283"/>
      <point x="427" y="-182" type="curve" smooth="yes"/>
      <point x="547" y="-109"/>
      <point x="618" y="-38"/>
      <point x="618" y="78" type="curve" smooth="yes"/>
      <point x="618" y="210"/>
      <point x="527" y="279"/>
      <point x="371" y="279" type="curve" smooth="yes"/>
    </contour>
    <contour>
      <point x="318" y="-194" type="line"/>
      <point x="451" y="-281"/>
      <point x="589" y="-308"/>
      <point x="702" y="-308" type="curve" smooth="yes"/>
      <point x="758" y="-308"/>
      <point x="820" y="-298"/>
      <point x="892" y="-286" type="curve"/>
      <point x="885" y="-154" type="line"/>
      <point x="816" y="-167"/>
      <point x="756" y="-175"/>
      <point x="705" y="-175" type="curve" smooth="yes"/>
      <point x="633" y="-175"/>
      <point x="529" y="-155"/>
      <point x="431" y="-104" type="curve"/>
    </contour>
    <contour>
      <point x="792" y="308" type="line"/>
      <point x="792" y="-668" type="line"/>
      <point x="953" y="-668" type="line"/>
      <point x="953" y="308" type="line"/>
    </contour>
    <contour>
      <point x="-18" y="1277" type="line"/>
      <point x="-18" y="1113" type="line"/>
      <point x="1231" y="1113" type="line"/>
      <point x="1231" y="1277" type="line"/>
    </contour>
    <contour>
      <point x="697" y="1226" type="line"/>
      <point x="697" y="816" type="line"/>
      <point x="884" y="816" type="line"/>
      <point x="884" y="1226" type="line"/>
    </contour>
    <contour>
      <point x="967" y="821"/>
      <point x="937" y="792"/>
      <point x="937" y="723" type="curve" smooth="yes"/>
      <point x="937" y="656"/>
      <point x="967" y="627"/>
      <point x="1036" y="627" type="curve" smooth="yes"/>
      <point x="1105" y="627"/>
      <point x="1134" y="656"/>
      <point x="1134" y="723" type="curve" smooth="yes"/>
      <point x="1134" y="792"/>
      <point x="1105" y="821"/>
      <point x="1036" y="821" type="curve" smooth="yes"/>
    </contour>
    <contour>
      <point x="790" y="1167" type="move" name="top"/>
    </contour>
    <contour>
      <point x="879" y="-612" type="move" name="bottom"/>
    </contour>
    <contour>
      <point x="605" y="1167" type="move" name="topcandrabindu"/>
    </contour>
  </outline>
</glyph>
<glyph name="ng_ka-deva" format="1">
  <advance width="1214"/>
  <outline>
    <contour>
      <point x="807" y="136"/>
      <point x="993" y="207"/>
      <point x="993" y="432" type="curve" smooth="yes"/>
      <point x="993" y="641"/>
      <point x="834" y="665"/>
      <point x="653" y="664" type="curve" smooth="yes"/>
      <point x="544" y="663"/>
      <point x="416" y="648"/>
      <point x="342" y="635" type="curve"/>
      <point x="362" y="621" type="line"/>
      <point x="351" y="628"/>
      <point x="329" y="683"/>
      <point x="329" y="733" type="curve" smooth="yes"/>
      <point x="329" y="798"/>
      <point x="357" y="816"/>
      <point x="477" y="816" type="curve" smooth="yes"/>
      <point x="811" y="816" type="line"/>
      <point x="790" y="976" type="line"/>
      <point x="429" y="976" type="line" smooth="yes"/>
      <point x="246" y="976"/>
      <point x="165" y="917"/>
      <point x="165" y="787" type="curve" smooth="yes"/>
      <point x="165" y="677"/>
      <point x="224" y="559"/>
      <point x="291" y="504" type="curve"/>
      <point x="323" y="479"/>
      <point x="345" y="477"/>
      <point x="364" y="479" type="curve" smooth="yes"/>
      <point x="423" y="485"/>
      <point x="564" y="503"/>
      <point x="676" y="503" type="curve" smooth="yes"/>
      <point x="792" y="503"/>
      <point x="819" y="477"/>
      <point x="819" y="412" type="curve" smooth="yes"/>
      <point x="819" y="330"/>
      <point x="751" y="291"/>
      <point x="589" y="291" type="curve" smooth="yes"/>
      <point x="386" y="291"/>
      <point x="293" y="345"/>
      <point x="179" y="460" type="curve"/>
      <point x="85" y="368" type="line"/>
      <point x="207" y="212"/>
      <point x="387" y="138"/>
      <point x="579" y="136" type="curve" smooth="yes"/>
    </contour>
    <contour>
      <point x="440" y="-519"/>
      <point x="563" y="-449"/>
      <point x="626" y="-350" type="curve"/>
      <point x="586" y="-235" type="line"/>
      <point x="526" y="-314"/>
      <point x="438" y="-369"/>
      <point x="342" y="-369" type="curve" smooth="yes"/>
      <point x="259" y="-369"/>
      <point x="210" y="-330"/>
      <point x="210" y="-240" type="curve" smooth="yes"/>
      <point x="210" y="-120"/>
      <point x="277" y="-89"/>
      <point x="361" y="-86" type="curve" smooth="yes"/>
      <point x="433" y="-84"/>
      <point x="524" y="-97"/>
      <point x="625" y="-147" type="curve"/>
      <point x="625" y="-51" type="line"/>
      <point x="563" y="15"/>
      <point x="463" y="57"/>
      <point x="337" y="57" type="curve" smooth="yes"/>
      <point x="161" y="57"/>
      <point x="47" y="-42"/>
      <point x="47" y="-232" type="curve" smooth="yes"/>
      <point x="47" y="-364"/>
      <point x="118" y="-519"/>
      <point x="319" y="-519" type="curve" smooth="yes"/>
    </contour>
    <contour>
      <point x="719" y="-643" type="line"/>
      <point x="719" y="236" type="line"/>
      <point x="532" y="236" type="line"/>
      <point x="532" y="-643" type="line"/>
    </contour>
    <contour>
      <point x="1106" y="-442"/>
      <point x="1130" y="-312"/>
      <point x="1130" y="-230" type="curve" smooth="yes"/>
      <point x="1130" y="-62"/>
      <point x="1050" y="32"/>
      <point x="917" y="32" type="curve" smooth="yes"/>
      <point x="824" y="32"/>
      <point x="737" y="-8"/>
      <point x="656" y="-104" type="curve"/>
      <point x="656" y="-316" type="line"/>
      <point x="740" y="-194"/>
      <point x="809" y="-129"/>
      <point x="888" y="-129" type="curve" smooth="yes"/>
      <point x="947" y="-129"/>
      <point x="967" y="-175"/>
      <point x="967" y="-238" type="curve" smooth="yes"/>
      <point x="967" y="-291"/>
      <point x="950" y="-373"/>
      <point x="868" y="-470" type="curve"/>
      <point x="1003" y="-561" type="line"/>
    </contour>
    <contour>
      <point x="1113" y="627"/>
      <point x="1142" y="656"/>
      <point x="1142" y="723" type="curve" smooth="yes"/>
      <point x="1142" y="792"/>
      <point x="1113" y="821"/>
      <point x="1044" y="821" type="curve" smooth="yes"/>
      <point x="975" y="821"/>
      <point x="945" y="792"/>
      <point x="945" y="723" type="curve" smooth="yes"/>
      <point x="945" y="656"/>
      <point x="975" y="627"/>
      <point x="1044" y="627" type="curve" smooth="yes"/>
    </contour>
    <contour>
      <point x="970" y="876" type="line"/>
      <point x="970" y="1235" type="line"/>
      <point x="504" y="1235" type="line"/>
      <point x="504" y="876" type="line"/>
    </contour>
    <contour>
      <point x="1143" y="1053" type="line"/>
      <point x="1143" y="1268" type="line"/>
      <point x="174" y="1268" type="line"/>
      <point x="174" y="1053" type="line"/>
    </contour>
    <contour>
      <point x="789" y="1167" type="move" name="top"/>
    </contour>
    <contour>
      <point x="625" y="-588" type="move" name="bottom"/>
    </contour>
    <contour>
      <point x="601" y="1167" type="move" name="topcandrabindu"/>
    </contour>
  </outline>
</glyph>
<glyph name="ng_kha-deva" format="1">
  <advance width="1256"/>
  <outline>
    <contour>
      <point x="-18" y="1277" type="line"/>
      <point x="-18" y="1113" type="line"/>
      <point x="1273" y="1113" type="line"/>
      <point x="1273" y="1277" type="line"/>
    </contour>
    <contour>
      <point x="738" y="1226" type="line"/>
      <point x="738" y="816" type="line"/>
      <point x="925" y="816" type="line"/>
      <point x="925" y="1226" type="line"/>
    </contour>
    <contour>
      <point x="471" y="976" type="line" smooth="yes"/>
      <point x="288" y="976"/>
      <point x="207" y="917"/>
      <point x="207" y="787" type="curve" smooth="yes"/>
      <point x="207" y="677"/>
      <point x="266" y="559"/>
      <point x="333" y="504" type="curve"/>
      <point x="365" y="479"/>
      <point x="387" y="477"/>
      <point x="406" y="479" type="curve" smooth="yes"/>
      <point x="465" y="485"/>
      <point x="606" y="503"/>
      <point x="718" y="503" type="curve" smooth="yes"/>
      <point x="834" y="503"/>
      <point x="861" y="477"/>
      <point x="861" y="412" type="curve" smooth="yes"/>
      <point x="861" y="330"/>
      <point x="793" y="291"/>
      <point x="631" y="291" type="curve" smooth="yes"/>
      <point x="428" y="291"/>
      <point x="335" y="345"/>
      <point x="221" y="460" type="curve"/>
      <point x="127" y="368" type="line"/>
      <point x="262" y="206"/>
      <point x="442" y="138"/>
      <point x="621" y="136" type="curve" smooth="yes"/>
      <point x="849" y="136"/>
      <point x="1035" y="207"/>
      <point x="1035" y="432" type="curve" smooth="yes"/>
      <point x="1035" y="641"/>
      <point x="876" y="665"/>
      <point x="695" y="664" type="curve" smooth="yes"/>
      <point x="586" y="663"/>
      <point x="458" y="648"/>
      <point x="384" y="635" type="curve"/>
      <point x="404" y="621" type="line"/>
      <point x="393" y="628"/>
      <point x="371" y="683"/>
      <point x="371" y="733" type="curve" smooth="yes"/>
      <point x="371" y="798"/>
      <point x="399" y="816"/>
      <point x="519" y="816" type="curve" smooth="yes"/>
      <point x="853" y="816" type="line"/>
      <point x="832" y="976" type="line"/>
    </contour>
    <contour>
      <point x="841" y="315" type="line"/>
      <point x="841" y="-617" type="line"/>
      <point x="1002" y="-617" type="line"/>
      <point x="1002" y="315" type="line"/>
    </contour>
    <contour>
      <point x="523" y="54"/>
      <point x="424" y="-25"/>
      <point x="424" y="-192" type="curve" smooth="yes"/>
      <point x="424" y="-309"/>
      <point x="481" y="-431"/>
      <point x="655" y="-431" type="curve" smooth="yes"/>
      <point x="765" y="-431"/>
      <point x="860" y="-385"/>
      <point x="912" y="-305" type="curve"/>
      <point x="889" y="-186" type="line"/>
      <point x="834" y="-259"/>
      <point x="762" y="-303"/>
      <point x="676" y="-303" type="curve" smooth="yes"/>
      <point x="613" y="-303"/>
      <point x="574" y="-272"/>
      <point x="574" y="-195" type="curve" smooth="yes"/>
      <point x="574" y="-120"/>
      <point x="613" y="-79"/>
      <point x="701" y="-77" type="curve" smooth="yes"/>
      <point x="758" y="-75"/>
      <point x="838" y="-88"/>
      <point x="915" y="-106" type="curve"/>
      <point x="911" y="-17" type="line"/>
      <point x="868" y="23"/>
      <point x="783" y="54"/>
      <point x="678" y="54" type="curve" smooth="yes"/>
    </contour>
    <contour>
      <point x="238" y="289" type="line"/>
      <point x="238" y="0" type="line" smooth="yes"/>
      <point x="238" y="-62"/>
      <point x="218" y="-97"/>
      <point x="169" y="-97" type="curve" smooth="yes"/>
      <point x="143" y="-97"/>
      <point x="116" y="-88"/>
      <point x="83" y="-61" type="curve"/>
      <point x="-15" y="-129" type="line"/>
      <point x="135" y="-525"/>
      <point x="361" y="-669"/>
      <point x="630" y="-669" type="curve" smooth="yes"/>
      <point x="682" y="-669"/>
      <point x="724" y="-666"/>
      <point x="784" y="-641" type="curve"/>
      <point x="755" y="-514" type="line"/>
      <point x="705" y="-528"/>
      <point x="676" y="-534"/>
      <point x="624" y="-534" type="curve" smooth="yes"/>
      <point x="439" y="-534"/>
      <point x="249" y="-423"/>
      <point x="165" y="-178" type="curve"/>
      <point x="147" y="-209" type="line"/>
      <point x="165" y="-216"/>
      <point x="191" y="-227"/>
      <point x="226" y="-227" type="curve" smooth="yes"/>
      <point x="303" y="-227"/>
      <point x="397" y="-184"/>
      <point x="397" y="-9" type="curve" smooth="yes"/>
      <point x="397" y="289" type="line"/>
    </contour>
    <contour>
      <point x="1014" y="820"/>
      <point x="984" y="791"/>
      <point x="984" y="722" type="curve" smooth="yes"/>
      <point x="984" y="655"/>
      <point x="1014" y="626"/>
      <point x="1083" y="626" type="curve" smooth="yes"/>
      <point x="1152" y="626"/>
      <point x="1181" y="655"/>
      <point x="1181" y="722" type="curve" smooth="yes"/>
      <point x="1181" y="791"/>
      <point x="1152" y="820"/>
      <point x="1083" y="820" type="curve" smooth="yes"/>
    </contour>
    <contour>
      <point x="832" y="1167" type="move" name="top"/>
    </contour>
    <contour>
      <point x="926" y="-561" type="move" name="bottom"/>
    </contour>
    <contour>
      <point x="618" y="1167" type="move" name="topcandrabindu"/>
    </contour>
  </outline>
</glyph>
<glyph name="ny_ja-deva" format="1">
  <advance width="2425"/>
  <outline>
    <component base="ny-deva"/>
    <component base="ja-deva" xOffset="1004"/>
    <contour>
      <point x="2148" y="1167" type="move" name="top"/>
    </contour>
    <contour>
      <point x="2149" y="27" type="move" name="bottom"/>
    </contour>
    <contour>
      <point x="1553" y="1167" type="move" name="topcandrabindu"/>
    </contour>
  </outline>
</glyph>
<glyph name="rakar_uMatra-deva" format="1">
  <advance width="600"/>
  <outline>
    <component base="rakar-deva" xOffset="1" yOffset="-6"/>
    <component base="uMatra-deva" xOffset="93" yOffset="18"/>
    <contour>
      <point x="68" y="96" type="move" name="_top"/>
    </contour>
  </outline>
</glyph>
<glyph name="rakar_uuMatra-deva" format="1">
  <advance width="600"/>
  <outline>
    <component base="rakar-deva" xOffset="2" yOffset="-6"/>
    <component base="uuMatra-deva" xOffset="10" yOffset="18"/>
    <contour>
      <point x="68" y="82" type="move" name="_top"/>
    </contour>
  </outline>
</glyph>
<glyph name="sh_la-deva" format="1">
  <advance width="2044"/>
  <outline>
    <contour>
      <point x="279" y="1310"/>
      <point x="150" y="1210"/>
      <point x="150" y="1034" type="curve" smooth="yes"/>
      <point x="150" y="931"/>
      <point x="192" y="830"/>
      <point x="345" y="728" type="curve"/>
      <point x="510" y="802" type="line"/>
      <point x="365" y="883"/>
      <point x="329" y="957"/>
      <point x="329" y="1022" type="curve" smooth="yes"/>
      <point x="329" y="1104"/>
      <point x="376" y="1154"/>
      <point x="487" y="1154" type="curve" smooth="yes"/>
      <point x="585" y="1154"/>
      <point x="637" y="1108"/>
      <point x="637" y="1024" type="curve" smooth="yes"/>
      <point x="637" y="937"/>
      <point x="578" y="875"/>
      <point x="437" y="789" type="curve"/>
      <point x="42" y="568" type="line"/>
      <point x="126" y="428" type="line" smooth="yes"/>
      <point x="571" y="689" type="line"/>
      <point x="725" y="780"/>
      <point x="823" y="885"/>
      <point x="823" y="1034" type="curve" smooth="yes"/>
      <point x="823" y="1219"/>
      <point x="688" y="1310"/>
      <point x="486" y="1310" type="curve" smooth="yes"/>
    </contour>
    <contour>
      <point x="805" y="704"/>
      <point x="693" y="583"/>
      <point x="693" y="369" type="curve" smooth="yes"/>
      <point x="693" y="108"/>
      <point x="842" y="-57"/>
      <point x="974" y="-204" type="curve"/>
      <point x="1108" y="-89" type="line"/>
      <point x="964" y="84"/>
      <point x="879" y="184"/>
      <point x="879" y="341" type="curve" smooth="yes"/>
      <point x="879" y="483"/>
      <point x="952" y="527"/>
      <point x="1037" y="527" type="curve" smooth="yes"/>
      <point x="1146" y="527"/>
      <point x="1218" y="442"/>
      <point x="1289" y="319" type="curve"/>
      <point x="1313" y="445" type="line"/>
      <point x="1240" y="629"/>
      <point x="1138" y="704"/>
      <point x="994" y="704" type="curve" smooth="yes"/>
    </contour>
    <contour>
      <point x="392" y="698" type="line"/>
      <point x="567" y="579"/>
      <point x="736" y="569"/>
      <point x="844" y="564" type="curve" smooth="yes"/>
      <point x="885" y="556"/>
      <point x="928" y="552"/>
      <point x="973" y="552" type="curve"/>
      <point x="1001" y="703" type="line"/>
      <point x="954" y="702"/>
      <point x="909" y="702"/>
      <point x="858" y="707" type="curve" smooth="yes"/>
      <point x="796" y="711"/>
      <point x="647" y="721"/>
      <point x="534" y="785" type="curve"/>
    </contour>
    <contour>
      <point x="1308" y="701"/>
      <point x="1188" y="549"/>
      <point x="1188" y="343" type="curve" smooth="yes"/>
      <point x="1188" y="302"/>
      <point x="1192" y="260"/>
      <point x="1206" y="222" type="curve"/>
      <point x="1371" y="241" type="line"/>
      <point x="1367" y="270"/>
      <point x="1364" y="298"/>
      <point x="1364" y="326" type="curve" smooth="yes"/>
      <point x="1364" y="447"/>
      <point x="1421" y="530"/>
      <point x="1526" y="530" type="curve" smooth="yes"/>
      <point x="1614" y="530"/>
      <point x="1674" y="482"/>
      <point x="1702" y="395" type="curve"/>
      <point x="1718" y="511" type="line"/>
      <point x="1696" y="637"/>
      <point x="1599" y="701"/>
      <point x="1492" y="701" type="curve" smooth="yes"/>
    </contour>
    <contour>
      <point x="1670" y="1177" type="line"/>
      <point x="1669" y="-173" type="line"/>
      <point x="1858" y="-173" type="line"/>
      <point x="1859" y="1177" type="line"/>
    </contour>
    <contour>
      <point x="882" y="1277" type="line"/>
      <point x="882" y="1114" type="line"/>
      <point x="2103" y="1114" type="line"/>
      <point x="2103" y="1277" type="line"/>
    </contour>
    <contour>
      <point x="1765" y="1167" type="move" name="top"/>
    </contour>
    <contour>
      <point x="1763" y="-146" type="move" name="bottom"/>
    </contour>
    <contour>
      <point x="1239" y="1167" type="move" name="topcandrabindu"/>
    </contour>
  </outline>
</glyph>
<glyph name="sha-deva.ss02" format="1">
  <advance width="885"/>
  <outline>
    <contour>
      <point x="251" y="1310"/>
      <point x="119" y="1215"/>
      <point x="119" y="1034" type="curve" smooth="yes"/>
      <point x="119" y="930"/>
      <point x="161" y="830"/>
      <point x="310" y="731" type="curve"/>
      <point x="474" y="802" type="line"/>
      <point x="334" y="885"/>
      <point x="298" y="956"/>
      <point x="298" y="1024" type="curve" smooth="yes"/>
      <point x="298" y="1107"/>
      <point x="345" y="1154"/>
      <point x="455" y="1154" type="curve" smooth="yes"/>
      <point x="554" y="1154"/>
      <point x="603" y="1108"/>
      <point x="603" y="1026" type="curve" smooth="yes"/>
      <point x="603" y="941"/>
      <point x="548" y="879"/>
      <point x="402" y="790" type="curve" smooth="yes"/>
      <point x="272" y="713"/>
      <point x="113" y="646"/>
      <point x="-125" y="580" type="curve"/>
      <point x="-74" y="436" type="line"/>
      <point x="142" y="489"/>
      <point x="360" y="579"/>
      <point x="535" y="689" type="curve" smooth="yes"/>
      <point x="695" y="784"/>
      <point x="789" y="886"/>
      <point x="789" y="1036" type="curve" smooth="yes"/>
      <point x="789" y="1222"/>
      <point x="654" y="1310"/>
      <point x="454" y="1310" type="curve" smooth="yes"/>
    </contour>
    <contour>
      <point x="385" y="679" type="line"/>
      <point x="539" y="584"/>
      <point x="687" y="541"/>
      <point x="840" y="536" type="curve" smooth="yes"/>
      <point x="922" y="531"/>
      <point x="1000" y="536"/>
      <point x="1112" y="552" type="curve"/>
      <point x="1106" y="709" type="line"/>
      <point x="1029" y="693"/>
      <point x="943" y="685"/>
      <point x="854" y="690" type="curve" smooth="yes"/>
      <point x="740" y="694"/>
      <point x="624" y="718"/>
      <point x="525" y="770" type="curve"/>
    </contour>
    <contour>
      <point x="75" y="292" type="move" name="top"/>
    </contour>
    <contour>
      <point x="75" y="7" type="move" name="bottom"/>
    </contour>
  </outline>
</glyph>
<glyph name="tt-deva" format="1">
  <advance width="1015"/>
  <outline>
    <component base="tta-deva"/>
    <component base="halant-deva" xOffset="478" yOffset="24"/>
    <contour>
      <point x="127" y="292" type="move" name="top"/>
    </contour>
    <contour>
      <point x="127" y="7" type="move" name="bottom"/>
    </contour>
  </outline>
</glyph>
<glyph name="tth-deva" format="1">
  <advance width="1176"/>
  <outline>
    <component base="ttha-deva"/>
    <component base="halant-deva" xOffset="487" yOffset="21"/>
    <contour>
      <point x="146" y="292" type="move" name="top"/>
    </contour>
    <contour>
      <point x="146" y="7" type="move" name="bottom"/>
    </contour>
  </outline>
</glyph>
<glyph name="z-deva" format="1">
  <advance width="929"/>
  <outline>
    <component base="j-deva"/>
    <component base="nukta-deva" xOffset="371" yOffset="9"/>
    <contour>
      <point x="118" y="292" type="move" name="top"/>
    </contour>
    <contour>
      <point x="118" y="7" type="move" name="bottom"/>
    </contour>
  </outline>
</glyph>
<glyph name="zha-deva.np" format="1">
  <advance width="1147"/>
  <outline>
    <contour>
      <point x="454" y="1137" type="line"/>
      <point x="454" y="709" type="line" smooth="yes"/>
      <point x="454" y="595"/>
      <point x="392" y="553"/>
      <point x="304" y="553" type="curve" smooth="yes"/>
      <point x="232" y="553"/>
      <point x="165" y="588"/>
      <point x="98" y="631" type="curve"/>
      <point x="25" y="487" type="line"/>
      <point x="98" y="429"/>
      <point x="209" y="389"/>
      <point x="312" y="389" type="curve" smooth="yes"/>
      <point x="499" y="389"/>
      <point x="643" y="511"/>
      <point x="643" y="733" type="curve" smooth="yes"/>
      <point x="643" y="1160" type="line"/>
    </contour>
    <contour>
      <point x="565" y="151" type="line"/>
      <point x="968" y="-364" type="line"/>
      <point x="1106" y="-249" type="line"/>
      <point x="686" y="197" type="line"/>
    </contour>
    <contour>
      <point x="495" y="299" type="line"/>
      <point x="460" y="235"/>
      <point x="450" y="181"/>
      <point x="448" y="143" type="curve" smooth="yes"/>
      <point x="449" y="56"/>
      <point x="512" y="23"/>
      <point x="564" y="22" type="curve" smooth="yes"/>
      <point x="623" y="23"/>
      <point x="669" y="40"/>
      <point x="766" y="89" type="curve"/>
      <point x="749" y="128" type="line"/>
      <point x="602" y="299" type="line"/>
    </contour>
    <contour>
      <point x="671" y="833"/>
      <point x="557" y="783"/>
      <point x="518" y="732" type="curve"/>
      <point x="584" y="623" type="line"/>
      <point x="629" y="645"/>
      <point x="677" y="675"/>
      <point x="757" y="675" type="curve" smooth="yes"/>
      <point x="862" y="675"/>
      <point x="924" y="617"/>
      <point x="924" y="506" type="curve" smooth="yes"/>
      <point x="924" y="371"/>
      <point x="799" y="254"/>
      <point x="560" y="164" type="curve"/>
      <point x="672" y="52" type="line"/>
      <point x="933" y="145"/>
      <point x="1099" y="307"/>
      <point x="1099" y="526" type="curve" smooth="yes"/>
      <point x="1099" y="696"/>
      <point x="988" y="833"/>
      <point x="768" y="833" type="curve" smooth="yes"/>
    </contour>
    <contour>
      <point x="-18" y="1277" type="line"/>
      <point x="-18" y="1114" type="line"/>
      <point x="1164" y="1114" type="line"/>
      <point x="1164" y="1277" type="line"/>
    </contour>
  </outline>
</glyph>
